<svg xmlns="http://www.w3.org/2000/svg" width="90" height="132" viewBox="0 0 90 132">
  <g fill="#FFF">
    <path d="M35.1 102.582692C30.136562 102.585878 26.115185 106.611559 26.1173085 111.574998 26.119432 116.538436 30.1442522 120.560675 35.1076911 120.559613 40.07113 120.558552 44.0942297 116.534593 44.0942308 111.571154 44.091046 106.606031 40.0651243 102.582691 35.1 102.582692L35.1 102.582692zM38.3365385 114.807692C36.7972736 116.352311 34.3810431 116.593974 32.5663538 115.384807 30.7516646 114.175639 30.0443105 111.852662 30.8771261 109.837321 31.7099416 107.821979 33.8508028 106.675993 35.9897029 107.100598 38.1286031 107.525204 39.6693835 109.402054 39.6692308 111.582692 39.6704112 112.791919 39.1910011 113.95205 38.3365385 114.807692L38.3365385 114.807692zM54.7211538 102.582692C53.1119112 102.583381 51.5329117 103.019998 50.1519231 103.846154 50.1519231 101.025 50.1519231 98.4923077 50.1519231 97.2980769 50.1519231 93.8365385 45.7211538 94.1826923 45.7211538 94.1826923L45.7211538 111.588462 45.7211538 111.588462C45.7243396 116.5519 49.7500205 120.573277 54.7134591 120.571153 59.6768976 120.56903 63.6991361 116.544209 63.6980749 111.58077 63.6970136 106.617332 59.6730544 102.594232 54.7096154 102.594231L54.7211538 102.582692zM57.9519231 114.807692C56.4144928 116.348853 54.0025526 116.589513 52.190915 115.382518 50.3792774 114.175523 49.6724035 111.856966 50.5025206 109.844561 51.3326377 107.832156 53.4685949 106.686268 55.604333 107.107565 57.7400711 107.528862 59.2808816 109.400032 59.2846154 111.576923 59.2911832 112.788904 58.8110687 113.952818 57.9519231 114.807692zM74.3192308 102.576923C70.5307164 102.57825 67.1497598 104.954877 65.865833 108.519196 64.5819062 112.083516 65.6706877 116.070216 68.5881107 118.487132 71.5055337 120.904049 75.6251837 121.232234 78.8884615 119.307692L78.8884615 120.369231 83.3134615 120.369231 83.3134615 111.346154 83.3134615 111.346154C83.194389 106.465542 79.2012927 102.572337 74.3192308 102.576923L74.3192308 102.576923zM77.5384615 114.807692C75.999898 116.342875 73.5913858 116.57805 71.7849145 115.369486 69.9784433 114.160923 69.2767078 111.844933 70.1085817 109.836962 70.9404557 107.82899 73.0744498 106.687803 75.2063492 107.110851 77.3382486 107.533898 78.8748003 109.403456 78.8769231 111.576923 78.8774703 112.788851 78.3959166 113.951222 77.5384615 114.807692zM18.3057692 111.675C18.3043471 109.911633 17.7737712 108.189271 16.7826923 106.730769 18.6173077 105.576923 18.2653846 102.836538 18.2653846 102.836538L9.44423077 102.836538C4.54535883 102.836538.574038462 106.807859.574038462 111.706731.574038462 116.605603 4.54535883 120.576923 9.44423077 120.576923L10.5980769 120.576923C12.072383 120.580679 13.3685991 121.553748 13.7837442 122.968402 14.1988893 124.383057 13.6340593 125.902269 12.3955801 126.70212 11.1571009 127.501971 9.54002804 127.391905 8.42135375 126.431613 7.30267947 125.471321 6.94891684 123.889584 7.55192308 122.544231L3.57692308 120.75C1.94232617 124.371347 3.32831324 128.641875 6.77797588 130.61314 10.2276385 132.584406 14.6105301 131.61043 16.9006296 128.363662 19.1907292 125.116893 18.6375763 120.661291 15.6230769 118.073077 17.3513785 116.394767 18.3202526 114.084054 18.3057692 111.675zM6.25384615 114.859615C4.97789794 113.586727 4.5845015 111.675326 5.25407589 110.002019 5.92365028 108.328711 7.52701874 107.216316 9.32884615 107.175L9.675 107.175C11.6848095 107.276783 13.3834572 108.698966 13.8369673 110.659584 14.2904774 112.620202 13.3888837 114.643847 11.6279136 115.617848 9.86694348 116.59185 7.67359447 116.280033 6.25384615 114.853846L6.25384615 114.859615zM85.1884615 94.2807692L85.1884615 120.530769 89.6192308 120.530769C89.6192308 120.530769 89.6192308 100.857692 89.6192308 97.4019231 89.6192308 93.9461538 85.1884615 94.2807692 85.1884615 94.2807692zM20.0134615 94.2807692L20.0134615 120.530769 24.4442308 120.530769 24.4442308 97.3961538C24.4442308 93.9288462 20.0134615 94.2807692 20.0134615 94.2807692zM54.8423077 32.9134615C52.2483093 30.307852 48.7760141 28.7630098 45.1038462 28.5807692L43.95 28.5807692C37.1538097 28.7476437 31.3350391 33.4996896 29.8137185 40.1255204 28.2923979 46.7513512 31.4554788 53.5656706 37.4981944 56.6804159 43.54091 59.7951611 50.9262809 58.418089 55.4404179 53.3349191 59.9545549 48.2517491 60.4492763 40.7553979 56.6423077 35.1230769 56.11288 34.3317564 55.5102283 33.5919628 54.8423077 32.9134615z"/>
    <path d="M61.7826923,0 L28.4192308,0 C13.0646526,-9.40196748e-16 0.617307692,12.4473449 0.617307692,27.8019231 L0.617307692,61.1538462 C0.618369709,74.464322 10.0515442,85.9074882 23.1173077,88.4480769 C22.8265289,86.8956918 22.6797516,85.3197677 22.6788462,83.7403846 C22.6788462,83.3365385 22.6788462,82.9326923 22.7134615,82.5288462 C22.7134615,82.4019231 22.7134615,82.2807692 22.7134615,82.1538462 C22.7134615,81.8576923 22.7365385,81.5634615 22.7826923,81.2711538 C22.7826923,81.0788462 22.8038462,80.8865385 22.8461538,80.6942308 C22.875,80.4346154 22.9096154,80.175 22.95,79.9211538 C22.9903846,79.6673077 23.025,79.4711538 23.0653846,79.2461538 L23.1288462,78.9115385 C23.2903846,78.0769231 23.4826923,77.2557692 23.7057692,76.4480769 L23.7057692,76.4480769 C24.0194422,75.3659181 24.4049123,74.3058752 24.8596154,73.275 L33.0923077,76.9961538 L33.0923077,76.9961538 L37.9961538,79.2115385 C37.3597828,80.6322222 37.0333089,82.1721561 37.0384615,83.7288462 C37.0377512,85.5498915 37.4855539,87.3430838 38.3423077,88.95 L57.8769231,88.95 C60.1776112,84.6695079 59.3991597,79.3868233 55.9615385,75.9519231 C55.7480769,75.7442308 55.5288462,75.5480769 55.2980769,75.375 C55.0673077,75.2019231 54.8596154,75.0230769 54.6288462,74.8557692 L54.6288462,74.8557692 C52.7502663,73.4778532 50.4797369,72.7378588 48.15,72.7442308 C48.15,72.7442308 45.6230769,72.7442308 44.3596154,72.7442308 C28.1702376,72.7442308 15.0461538,59.620147 15.0461538,43.4307692 C15.0461538,27.2413915 28.1702376,14.1173077 44.3596154,14.1173077 C44.6192308,14.1173077 44.8903846,14.1173077 45.1442308,14.1173077 L73.5057692,14.1173077 C73.5057692,14.1173077 74.6596154,23.2269231 68.6192308,26.9769231 C69.0346154,27.5923077 69.4192308,28.2230769 69.7730769,28.8692308 C76.4009449,40.4844912 74.3291553,55.1127968 64.7365385,64.4307692 C65.3134615,64.9096154 65.8153846,65.4115385 66.3288462,65.9307692 L66.5884615,66.1903846 C66.7788462,66.3923077 66.9634615,66.6 67.1653846,66.8076923 L67.4826923,67.1596154 C67.65,67.3557692 67.8115385,67.5576923 67.9788462,67.7365385 L68.3076923,68.1461538 C68.4576923,68.3423077 68.6076923,68.5442308 68.7519231,68.7230769 L69.0807692,69.1788462 C69.2192308,69.375 69.3519231,69.5769231 69.4846154,69.7557692 L69.8019231,70.2519231 C69.9288462,70.4538462 70.0442308,70.6557692 70.1653846,70.8288462 L70.4653846,71.3596154 C70.575,71.5615385 70.6846154,71.7634615 70.7884615,71.9711538 C70.8923077,72.1788462 70.9788462,72.3461538 71.0711538,72.5480769 C71.1634615,72.75 71.2673077,72.9576923 71.3596154,73.1596154 C71.4519231,73.3615385 71.5326923,73.5576923 71.6192308,73.7365385 C71.7057692,73.9153846 71.7923077,74.1461538 71.8730769,74.3538462 C71.9538462,74.5615385 72.0288462,74.7692308 72.1096154,74.9826923 C72.1903846,75.1961538 72.2596154,75.3923077 72.3288462,75.6 C72.3980769,75.8076923 72.4673077,76.0384615 72.5365385,76.2576923 C72.6057692,76.4769231 72.6576923,76.6673077 72.7153846,76.8692308 C72.7730769,77.0711538 72.8365385,77.3307692 72.8942308,77.5673077 C72.9519231,77.8038462 72.9923077,77.9711538 73.0384615,78.1730769 C73.0846154,78.375 73.1365385,78.6634615 73.1826923,78.9115385 C73.2288462,79.1596154 73.2576923,79.3038462 73.2923077,79.4884615 C73.3269231,79.6730769 73.3673077,80.0192308 73.4019231,80.2846154 C73.4365385,80.55 73.4538462,80.6538462 73.4769231,80.8615385 C73.5115385,81.1615385 73.5288462,81.4673077 73.5519231,81.7730769 C73.5519231,81.9288462 73.5519231,82.0846154 73.5865385,82.2403846 C73.6134615,82.7019231 73.6269231,83.1673077 73.6269231,83.6365385 C73.6260948,84.5190989 73.5798799,85.4010328 73.4884615,86.2788462 C83.2743456,81.7363854 89.5486954,71.9425526 89.5846154,61.1538462 L89.5846154,27.8019231 C89.5846154,12.4473449 77.1372704,9.40196748e-16 61.7826923,0 Z"/>
  </g>
</svg>
